<?xml version="1.0" encoding="utf-8"?>
<!-- Generator: Adobe Illustrator 27.0.0, SVG Export Plug-In . SVG Version: 6.00 Build 0)  -->
<svg version="1.1" id="Layer_1" xmlns="http://www.w3.org/2000/svg" xmlns:xlink="http://www.w3.org/1999/xlink" x="0px" y="0px"
	 viewBox="0 0 318.8 93" style="enable-background:new 0 0 318.8 93;" xml:space="preserve">
<style type="text/css">
	.st0{fill:#74B9FF;stroke:#0070CC;stroke-width:13;stroke-miterlimit:10;}
	.st1{fill:#74B9FF;}
	.st2{font-family:'HelveticaRounded-Bold';}
	.st3{font-size:44.415px;}
	.st4{fill:none;stroke:#006AC1;stroke-width:3;stroke-miterlimit:10;}
</style>
<path class="st0" d="M29,27.7v7.4h23.2v-7.4c0-6.8-5.2-12.3-11.6-12.3S29,20.9,29,27.7z M19.8,35.1v-7.4c0-12.3,9.4-22.2,20.8-22.2
	s20.8,9.9,20.8,22.2v7.4h2.3c5.1,0,9.3,4.4,9.3,9.9v29.6c0,5.4-4.1,9.9-9.3,9.9H17.5c-5.1,0-9.3-4.4-9.3-9.9V45
	c0-5.4,4.1-9.9,9.3-9.9H19.8z"/>
<g>
	<text transform="matrix(0.9274 0 0 1 99.1895 62.4951)" class="st1 st2 st3">Your Text</text>
	<text transform="matrix(0.9274 0 0 1 99.1895 62.4951)" class="st4 st2 st3">Your Text</text>
</g>
</svg>
